<?xml version="1.0" standalone="no"?>
<!DOCTYPE svg PUBLIC "-//W3C//DTD SVG 20010904//EN"
 "http://www.w3.org/TR/2001/REC-SVG-20010904/DTD/svg10.dtd">
<svg version="1.0" xmlns="http://www.w3.org/2000/svg"
 width="1170.000000pt" height="1170.000000pt" viewBox="0 0 1170.000000 1170.000000"
 preserveAspectRatio="xMidYMid meet">
<metadata>
Created by potrace 1.14, written by Peter Selinger 2001-2017
</metadata>
<g transform="translate(0.000000,1170.000000) scale(0.100000,-0.100000)"
fill="#000000" stroke="none">
<path d="M5433 10255 c-658 -83 -1251 -372 -1714 -834 -435 -436 -719 -991
-824 -1615 -89 -529 -40 -1043 151 -1566 81 -222 280 -582 423 -765 63 -81
136 -190 222 -332 214 -355 382 -721 514 -1123 53 -161 145 -503 145 -539 0
-9 4 -22 8 -29 8 -12 21 -11 139 13 l21 5 -18 82 c-99 450 -255 882 -476 1318
-143 282 -274 495 -476 772 -392 537 -583 1226 -527 1895 49 582 281 1159 637
1583 100 119 311 325 422 411 686 534 1573 712 2455 493 777 -192 1435 -673
1804 -1316 405 -707 458 -1603 140 -2400 -83 -208 -221 -457 -348 -628 -361
-484 -676 -1145 -830 -1743 -46 -178 -91 -402 -91 -454 0 -68 -20 -173 -40
-213 -22 -43 -83 -102 -129 -125 -106 -53 -27 -50 -1231 -55 l-1115 -5 -68
-32 c-76 -36 -166 -116 -204 -181 -83 -141 -83 -333 0 -474 38 -65 128 -145
204 -181 l68 -32 1130 -5 c1125 -5 1130 -5 1176 -26 132 -61 199 -215 160
-362 -24 -89 -125 -180 -221 -201 -35 -8 -445 -11 -1320 -11 l-1270 0 0 -75 0
-75 1323 2 1322 3 68 32 c81 39 173 123 212 194 79 145 73 332 -15 469 -64 99
-181 177 -299 200 -34 6 -443 10 -1140 10 l-1087 0 -52 26 c-213 106 -220 410
-14 532 l47 27 1110 5 c1045 5 1113 6 1165 24 97 32 192 86 245 139 71 71 102
142 120 274 44 312 93 528 185 808 151 461 390 943 652 1313 228 323 345 528
441 773 352 895 259 1917 -244 2669 -125 186 -185 258 -368 440 -473 472
-1061 762 -1766 872 -172 27 -652 34 -822 13z"/>
<path d="M5094 8200 c-268 -22 -447 -160 -530 -410 -17 -51 -19 -110 -22 -850
-3 -854 -2 -879 49 -997 67 -156 211 -276 386 -321 62 -15 141 -17 863 -17
732 0 800 1 860 18 213 58 358 201 417 407 17 61 18 119 18 870 0 738 -1 810
-18 870 -29 108 -74 189 -146 261 -75 75 -154 120 -270 151 -74 21 -98 22
-791 24 -393 1 -761 -2 -816 -6z m1031 -446 c95 -71 239 -222 304 -317 69
-102 134 -240 167 -352 34 -119 44 -317 20 -418 l-16 -67 34 -48 c80 -112 126
-248 126 -372 0 -70 -15 -122 -26 -93 -16 37 -78 102 -120 125 -101 54 -189
46 -354 -32 -147 -69 -237 -91 -385 -93 -66 -1 -154 5 -195 12 -245 44 -492
175 -681 361 -89 87 -194 218 -185 228 3 2 24 -9 48 -26 65 -45 213 -116 303
-146 171 -57 350 -70 510 -37 83 17 236 76 234 90 0 3 -37 35 -81 71 -104 83
-358 335 -474 470 -138 161 -331 402 -358 448 -4 7 52 -38 126 -99 154 -129
405 -320 534 -406 116 -78 124 -82 93 -47 -152 168 -476 579 -510 647 -6 12
33 -21 87 -74 175 -169 369 -334 580 -491 138 -102 274 -192 281 -185 14 14
44 149 49 222 15 195 -54 440 -180 634 -53 82 -46 82 69 -5z"/>
</g>
</svg>
