<svg id="Layer_1" enable-background="new 0 0 512 512" height="512" viewBox="0 0 512 512" width="512" xmlns="http://www.w3.org/2000/svg"><g><path d="m256.007 202.405c-29.552 0-53.594 24.041-53.594 53.591 0 29.551 24.042 53.592 53.594 53.592s53.594-24.041 53.594-53.592c.001-29.55-24.041-53.591-53.594-53.591zm0 77.183c-13.01 0-23.594-10.583-23.594-23.592 0-13.008 10.584-23.591 23.594-23.591s23.594 10.583 23.594 23.591c.001 13.009-10.583 23.592-23.594 23.592z"/><path d="m358.031 363.764c25.139-9.133 48.578-21.938 69.666-38.057 36.361-27.794 54.284-56.622 57.508-62.119 2.763-4.71 2.747-10.55-.04-15.246-1.954-3.291-20.169-32.97-57.627-61.339-46.816-35.457-104.882-54.645-168.219-55.661-1.101-.029-2.204-.045-3.312-.045-.214 0-.426.007-.64.008-.453-.002-.904-.012-1.358-.012-35.43 0-69.084 5.7-100.028 16.942-25.14 9.133-48.581 21.937-69.671 38.057-36.374 27.801-54.292 56.624-57.516 62.119-2.762 4.71-2.747 10.549.041 15.245 1.953 3.29 20.163 32.963 57.635 61.34 47.196 35.741 105.822 54.945 169.753 55.674.594.008 1.188.023 1.784.023.095 0 .189-.003.283-.004.572.003 1.141.016 1.714.016 35.431.001 69.084-5.699 100.027-16.941zm96.256-107.685c-7.104 10.022-21.674 28.109-44.809 45.793-17.212 13.156-35.837 23.679-55.78 31.539 16.903-21.282 27.014-48.189 27.014-77.415 0-28.554-9.654-54.891-25.861-75.936 56.289 22.742 87.85 60 99.436 76.019zm-199.95 94.594c-51.453-.895-93.035-43.019-93.035-94.677 0-52.005 42.143-94.347 94.073-94.69 1.087.005 2.171.014 3.248.03 51.017 1.39 92.091 43.318 92.091 94.66 0 52.124-42.336 94.545-94.431 94.694-.651-.003-1.299-.01-1.946-.017zm-196.624-94.752c7.102-10.021 21.671-28.105 44.814-45.793 17.212-13.156 35.837-23.678 55.78-31.537-16.898 21.281-27.007 48.184-27.007 77.405 0 28.562 9.66 54.907 25.876 75.955-56.309-22.74-87.876-60.008-99.463-76.03z"/><path d="m15 176.364c8.284 0 15-6.716 15-15v-131.364h131.364c8.284 0 15-6.716 15-15s-6.716-15-15-15h-146.364c-8.284 0-15 6.716-15 15v146.364c0 8.284 6.716 15 15 15z"/><path d="m497 0h-146.363c-8.284 0-15 6.716-15 15s6.716 15 15 15h131.363v131.364c0 8.284 6.716 15 15 15s15-6.716 15-15v-146.364c0-8.284-6.716-15-15-15z"/><path d="m497 335.636c-8.284 0-15 6.716-15 15v131.364h-131.363c-8.284 0-15 6.716-15 15s6.716 15 15 15h146.363c8.284 0 15-6.716 15-15v-146.364c0-8.284-6.716-15-15-15z"/><path d="m161.364 482h-131.364v-131.364c0-8.284-6.716-15-15-15s-15 6.716-15 15v146.364c0 8.284 6.716 15 15 15h146.364c8.284 0 15-6.716 15-15s-6.716-15-15-15z"/></g></svg>