<svg id="Layer_1" enable-background="new 0 0 512.202 512.202" height="512" viewBox="0 0 512.202 512.202" width="512" xmlns="http://www.w3.org/2000/svg"><g><path d="m497.021 0h-481.84c-8.284 0-15 6.716-15 15v359.131c0 8.284 6.716 15 15 15h127.49l-17.476 4.651c-.212.057-.424.117-.634.184-19.684 6.178-34.669 22.53-39.108 42.677-.025.113-.048.227-.07.34l-9.59 48.888c-1.351 6.431.23 13.041 4.352 18.17 4.168 5.188 10.375 8.162 17.03 8.162h318.011c6.742 0 13-3.039 17.169-8.337 4.124-5.24 5.619-11.946 4.117-18.433l-11.335-52.216c-.025-.116-.052-.23-.079-.346-4.955-20.479-20.664-36.632-40.998-42.154-.13-.035-.26-.068-.391-.101l-6.114-1.485h119.466c8.284 0 15-6.716 15-15v-359.131c0-8.284-6.716-15-15-15zm-311.024 193.251c48.681 22.016 108.637 11.225 139.407 3.083v44.945c0 41.437-31.269 75.148-69.704 75.148s-69.703-33.712-69.703-75.148zm-.023-34.175-.045-17.247c-.014-5.359 2.062-10.401 5.848-14.196 3.785-3.796 8.822-5.886 14.182-5.886h99.303c11.028 0 20.013 8.972 20.03 20.026l.077 23.38c-10.365 3.048-27.954 7.519-48.167 9.733-46.646 5.113-74.922-5.052-91.228-15.81zm69.727 187.352c7.74 0 15.276-.935 22.513-2.703l4.331 15.406h-52.921l4-15.306c7.104 1.7 14.492 2.603 22.077 2.603zm33.775 42.703c-7.01 10.754-19.219 17.413-33.274 17.413-13.791 0-25.964-6.667-33.108-17.413zm106.385 50.64 9.211 42.431h-297.987l7.701-39.257c2.153-9.516 9.208-17.248 18.479-20.267l55.08-14.66c.212-.057.424-.117.633-.184 2.901-.91 5.69-2.063 8.374-3.398 12.534 19.565 34.562 32.107 58.849 32.107 24.924 0 47.156-12.809 59.444-32.793 3.038 1.435 6.217 2.623 9.516 3.519.13.035.26.068.391.101l50.819 12.346c9.636 2.684 17.082 10.346 19.49 20.055zm86.16-80.64h-168.313l-7.631-27.145c29.488-18.285 49.327-52.095 49.327-90.706v-65.25l-.113-34.327c-.041-27.545-22.484-49.955-50.03-49.955h-99.303c-13.388 0-25.968 5.221-35.423 14.7s-14.642 22.073-14.606 35.462l.068 25.783v73.587c0 38.756 19.987 72.677 49.659 90.913l-7.04 26.939h-168.435v-329.132h451.84z"/><path d="m76.073 134.103c8.284 0 15-6.716 15-15v-28.358h29.084c8.284 0 15-6.716 15-15s-6.716-15-15-15h-44.084c-8.284 0-15 6.716-15 15v43.357c0 8.285 6.716 15.001 15 15.001z"/><path d="m76.073 331.504h42.357c8.284 0 15-6.716 15-15s-6.716-15-15-15h-27.357v-28.084c0-8.284-6.716-15-15-15s-15 6.716-15 15v43.084c0 8.284 6.716 15 15 15z"/><path d="m394.587 331.504h44.084c8.284 0 15-6.716 15-15v-43.357c0-8.284-6.716-15-15-15s-15 6.716-15 15v28.357h-29.084c-8.284 0-15 6.716-15 15s6.715 15 15 15z"/><path d="m396.313 90.745h27.357v28.084c0 8.284 6.716 15 15 15s15-6.716 15-15v-43.084c0-8.284-6.716-15-15-15h-42.357c-8.284 0-15 6.716-15 15s6.716 15 15 15z"/></g></svg>