<?xml version="1.0" encoding="utf-8"?>
<!-- Generator: Adobe Illustrator 19.0.1, SVG Export Plug-In . SVG Version: 6.00 Build 0)  -->
<svg version="1.1" id="Drone_x5F_icons" xmlns="http://www.w3.org/2000/svg" xmlns:xlink="http://www.w3.org/1999/xlink" x="0px"
	 y="0px" viewBox="0 0 128 128" style="enable-background:new 0 0 128 128;" xml:space="preserve">
<style type="text/css">
	.st0{display:none;}
	.st1{display:inline;fill:#010101;}
	.st2{display:none;fill:#010101;}
	.st3{fill:#010101;}
</style>
<g id="row3" class="st0">
	<path id="icon:4_2_" class="st1" d="M64,15c-16,0-29.1,13-29.1,29.1c0,6.5,2.1,12.5,5.7,17.3l4.1-4.1c-2.6-3.8-4.1-8.3-4.1-13.2
		c0-12.9,10.5-23.5,23.5-23.5s23.5,10.5,23.5,23.5c0,5.1-1.7,9.9-4.5,13.7l4,4c3.8-4.9,6.1-11.1,6.1-17.8C93.1,28,80,15,64,15z
		 M64,0C39.7,0,19.9,19.8,19.9,44.1c0,10.6,3.8,20.4,10,28l4-4c-5.3-6.6-8.4-14.9-8.4-23.9C25.5,22.9,42.8,5.6,64,5.6
		s38.5,17.3,38.5,38.5c0,9.3-3.3,17.8-8.8,24.4l4,4c6.5-7.7,10.4-17.6,10.4-28.4C108.1,19.8,88.3,0,64,0z M64,15
		c-16,0-29.1,13-29.1,29.1c0,6.5,2.1,12.5,5.7,17.3l4.1-4.1c-2.6-3.8-4.1-8.3-4.1-13.2c0-12.9,10.5-23.5,23.5-23.5
		s23.5,10.5,23.5,23.5c0,5.1-1.7,9.9-4.5,13.7l4,4c3.8-4.9,6.1-11.1,6.1-17.8C93.1,28,80,15,64,15z M64,15c-16,0-29.1,13-29.1,29.1
		c0,6.5,2.1,12.5,5.7,17.3l4.1-4.1c-2.6-3.8-4.1-8.3-4.1-13.2c0-12.9,10.5-23.5,23.5-23.5s23.5,10.5,23.5,23.5
		c0,5.1-1.7,9.9-4.5,13.7l4,4c3.8-4.9,6.1-11.1,6.1-17.8C93.1,28,80,15,64,15z M100,113H27.2c5.6-11.8,18.6-20.3,34-21.1V51.6
		c-3.4-1-5.9-4.2-5.9-8c0-4.6,3.7-8.3,8.3-8.3c4.6,0,8.3,3.7,8.3,8.3c0,3.5-2.1,6.4-5.1,7.7V92C81.8,93,94.4,101.4,100,113z
		 M103,128H24.2c0-3.3,0.5-6.4,1.5-9.4h75.8C102.4,121.6,103,124.7,103,128z"/>
	<path id="icon:3_2_" class="st1" d="M116.8,93.6l-0.3-0.4l-14-21H75.9c-0.9,1.7-1.7,3.3-2.5,4.8h8.6l8.9,16.2H17.2L28.1,77h24.6
		c-0.8-1.5-1.7-3.1-2.5-4.8H25.5L0,110.4h128L116.8,93.6z M85.5,77h14.4l10.8,16.2H94.5L85.5,77z M8.9,105.6l6.2-9.2h77.5l5.1,9.2
		H8.9z M96.2,96.4h16.7l6.2,9.2h-17.8L96.2,96.4z M63,17.6c-11.9,0-21.5,9.7-21.5,21.6S63,87.7,63,87.7s21.5-36.6,21.5-48.5
		S74.9,17.6,63,17.6z M63,53.8c-8.2,0-14.8-6.6-14.8-14.7S54.9,24.4,63,24.4S77.8,31,77.8,39.1S71.2,53.8,63,53.8z M65.4,40.9
		c0.9-1.2,0.8-2.9-0.3-4c-1.1-1.1-2.8-1.2-4-0.2c-2.7-6.9-8.1-7.6-8.1-7.6c1.1,4.2,4.3,6.9,7.6,8.2c-0.9,1.2-0.8,2.9,0.3,4
		c1.1,1.1,2.8,1.2,4,0.3c1.4,4.1,4.8,6.7,8.2,7.7C71.1,43.2,67.1,41.4,65.4,40.9z"/>
	<path id="icon:2_2_" class="st1" d="M110.5,50.9V58h-7.7v-7.1H26V58h-7.7v-7.1H0v43.5c0,3.2,2.6,5.8,5.8,5.8h116.5
		c3.2,0,5.8-2.6,5.8-5.8V50.9H110.5z M87.8,73.2c0,3.7-3,6.7-6.7,6.7H46.3c-3.7,0-6.7-3-6.7-6.7V62.1h5.8v11.1c0,0.5,0.4,1,1,1h34.8
		c0.5,0,1-0.4,1-1V62.1h5.8V73.2z M128,33.6v11.5h-17.5v-6.3h-7.7v6.3H26v-6.3h-7.7v6.3H0V33.6c0-3.2,2.6-5.8,5.8-5.8h116.5
		C125.4,27.9,128,30.4,128,33.6z"/>
	<path id="icon:1_2_" class="st1" d="M74.6,5.4V0H61v5.4H45.8V0H32.3v5.4H22.2v99.8H51c-0.1-0.8-0.1-1.7-0.1-2.5
		c0-0.8,0-1.7,0.1-2.5H27.3V10.4h50.7v62.7c0.8-0.1,1.7-0.1,2.5-0.1c0.9,0,1.7,0,2.5,0.1V5.4H74.6z M64.8,50.5L50.9,75.9V58.9H40.3
		l14.4-24.2v15.9H64.8z M80.5,77.3c-14,0-25.3,11.4-25.3,25.4c0,14,11.4,25.4,25.3,25.4c14,0,25.3-11.4,25.3-25.4
		C105.8,88.6,94.5,77.3,80.5,77.3z M90.1,104.3H78.2V87.2h3.4v13.7h8.4V104.3z"/>
</g>
<g id="row2" class="st0">
	<path id="icon:4_1_" class="st1" d="M128,68.3v8.4l-29.6,1.2h-6.3c0,0.1,0,0.2,0,0.3l-23.3,1V79c-0.5,8.5-1,20-1,20l15,7.5v4.9
		L64,107.1l-18.9,4.3v-4.9l15-7.5c0,0-0.4-11.5-1-20v0.2l-22.8-0.9l-6.8-0.3h0L0,76.7v-8.4l58.2-4.8c-0.3-5.2-3.1-23.7-3.3-27.6
		C54.1,21.3,64,16.6,64,16.6s9.9,4.7,9.1,19.3c-0.2,3.9-3,22.4-3.3,27.6l41.3,2.8L128,68.3z M36.4,81.9c-0.6,5.5-1.9,9.4-3.4,9.4
		c-1.6,0-2.9-4-3.4-9.7h0L36.4,81.9z M92.1,81.6c0,0.1,0,0.2,0,0.3c0.6,5.5,1.9,9.4,3.4,9.4c1.6,0,2.9-4,3.4-9.7H92.1z M98.7,61.5
		c-0.7-4.3-1.8-7.1-3.1-7.1c-1.3,0-2.4,2.7-3.1,6.8c0,0.2-0.1,0.5-0.1,0.7l6.5,0.7C98.8,62.3,98.8,61.9,98.7,61.5z M36,61.1
		c-0.7-4.1-1.8-6.7-3.1-6.7c-1.3,0-2.5,2.8-3.1,7.1c-0.1,0.4-0.1,0.7-0.2,1.1l6.5-0.8C36.1,61.6,36.1,61.3,36,61.1z"/>
	<path id="icon:3_1_" class="st1" d="M18.8,89.2h5.5l3.9-3.9v-5.9C23.7,81,20.2,84.6,18.8,89.2z M24.3,98.9h-5.2
		c1.6,4.1,4.9,7.4,9.1,8.9v-5L24.3,98.9z M42.2,98.9l-3.9,3.9v5c4.2-1.5,7.5-4.8,9.1-8.9H42.2z M38.3,79.4v5.9l3.9,3.9h5.5
		C46.3,84.6,42.8,81,38.3,79.4z M94.7,78.5c-8.3,0-15.1,6.8-15.1,15.1c0,8.4,6.8,15.1,15.1,15.1c8.4,0,15.1-6.8,15.1-15.1
		C109.9,85.3,103.1,78.5,94.7,78.5z M94.7,100.5c-3.8,0-6.9-3.1-6.9-6.9c0-3.8,3.1-6.9,6.9-6.9c3.8,0,6.9,3.1,6.9,6.9
		C101.6,97.4,98.5,100.5,94.7,100.5z M38.3,79.4v5.9l3.9,3.9h5.5C46.3,84.6,42.8,81,38.3,79.4z M42.2,98.9l-3.9,3.9v5
		c4.2-1.5,7.5-4.8,9.1-8.9H42.2z M24.3,98.9h-5.2c1.6,4.1,4.9,7.4,9.1,8.9v-5L24.3,98.9z M18.8,89.2h5.5l3.9-3.9v-5.9
		C23.7,81,20.2,84.6,18.8,89.2z M38.3,79.4v5.9l3.9,3.9h5.5C46.3,84.6,42.8,81,38.3,79.4z M42.2,98.9l-3.9,3.9v5
		c4.2-1.5,7.5-4.8,9.1-8.9H42.2z M24.3,98.9h-5.2c1.6,4.1,4.9,7.4,9.1,8.9v-5L24.3,98.9z M18.8,89.2h5.5l3.9-3.9v-5.9
		C23.7,81,20.2,84.6,18.8,89.2z M18.8,89.2h5.5l3.9-3.9v-5.9C23.7,81,20.2,84.6,18.8,89.2z M24.3,98.9h-5.2c1.6,4.1,4.9,7.4,9.1,8.9
		v-5L24.3,98.9z M42.2,98.9l-3.9,3.9v5c4.2-1.5,7.5-4.8,9.1-8.9H42.2z M38.3,79.4v5.9l3.9,3.9h5.5C46.3,84.6,42.8,81,38.3,79.4z
		 M38.3,79.4v5.9l3.9,3.9h5.5C46.3,84.6,42.8,81,38.3,79.4z M42.2,98.9l-3.9,3.9v5c4.2-1.5,7.5-4.8,9.1-8.9H42.2z M24.3,98.9h-5.2
		c1.6,4.1,4.9,7.4,9.1,8.9v-5L24.3,98.9z M18.8,89.2h5.5l3.9-3.9v-5.9C23.7,81,20.2,84.6,18.8,89.2z M18.8,89.2h5.5l3.9-3.9v-5.9
		C23.7,81,20.2,84.6,18.8,89.2z M24.3,98.9h-5.2c1.6,4.1,4.9,7.4,9.1,8.9v-5L24.3,98.9z M42.2,98.9l-3.9,3.9v5
		c4.2-1.5,7.5-4.8,9.1-8.9H42.2z M38.3,79.4v5.9l3.9,3.9h5.5C46.3,84.6,42.8,81,38.3,79.4z M94.7,78.5c-8.3,0-15.1,6.8-15.1,15.1
		c0,8.4,6.8,15.1,15.1,15.1c8.4,0,15.1-6.8,15.1-15.1C109.9,85.3,103.1,78.5,94.7,78.5z M94.7,100.5c-3.8,0-6.9-3.1-6.9-6.9
		c0-3.8,3.1-6.9,6.9-6.9c3.8,0,6.9,3.1,6.9,6.9C101.6,97.4,98.5,100.5,94.7,100.5z M18.8,89.2h5.5l3.9-3.9v-5.9
		C23.7,81,20.2,84.6,18.8,89.2z M24.3,98.9h-5.2c1.6,4.1,4.9,7.4,9.1,8.9v-5L24.3,98.9z M42.2,98.9l-3.9,3.9v5
		c4.2-1.5,7.5-4.8,9.1-8.9H42.2z M38.3,79.4v5.9l3.9,3.9h5.5C46.3,84.6,42.8,81,38.3,79.4z M94.7,78.5c-8.3,0-15.1,6.8-15.1,15.1
		c0,8.4,6.8,15.1,15.1,15.1c8.4,0,15.1-6.8,15.1-15.1C109.9,85.3,103.1,78.5,94.7,78.5z M94.7,100.5c-3.8,0-6.9-3.1-6.9-6.9
		c0-3.8,3.1-6.9,6.9-6.9c3.8,0,6.9,3.1,6.9,6.9C101.6,97.4,98.5,100.5,94.7,100.5z M105,51.9H77.4v-7.1h-9.9V12.2
		c1.9-1.2,3.1-3.2,3.1-5.6C70.6,3,67.6,0,64,0c-3.7,0-6.6,3-6.6,6.6c0,2.3,1.2,4.4,3.1,5.6v32.6h-9.8v7.1H23
		c-9,0-16.3,7.3-16.3,16.3v45.2c0,8.8,7.6,14.6,16.4,14.6c10.1,0,71.5,0,81.7,0c8.8,0,16.4-5.8,16.4-14.6V68.2
		C121.3,59.2,114,51.9,105,51.9z M33.3,113.6c-11,0-20-9-20-20c0-11,9-20,20-20c11,0,20,9,20,20C53.3,104.6,44.3,113.6,33.3,113.6z
		 M60.1,68.6c-0.9,0.8-2.1,1.4-3.4,1.4h-3.9c-2.6,0-4.8-2.1-4.8-4.7c0-1.3,0.5-2.5,1.4-3.4c0.9-0.9,2.1-1.4,3.4-1.4h3.9
		c2.6,0,4.7,2.1,4.7,4.8C61.5,66.5,60.9,67.7,60.1,68.6z M70.7,69.9c-2.6,0-4.8-2.1-4.8-4.7c0-1.3,0.5-2.5,1.4-3.4
		c0.9-0.9,2.1-1.4,3.4-1.4h3.9c2.6,0,4.7,2.1,4.7,4.8c0,1.3-0.5,2.5-1.4,3.4c-0.9,0.8-2.1,1.4-3.4,1.4H70.7z M94.7,113.6
		c-11,0-20-9-20-20c0-11,9-20,20-20c11,0,20,9,20,20C114.8,104.6,105.8,113.6,94.7,113.6z"/>
	<path id="icon:2_1_" class="st1" d="M0,62.4v3.2h3.2v-3.2H0z M71.7,62.4v3.2H78v-3.2H71.7z M46.8,62.4v3.2H53v-3.2H46.8z
		 M40.6,62.4c0,0.5-0.1,1.1-0.1,1.6c0,0.6,0,1.1,0.1,1.6h0L40.6,62.4L40.6,62.4z M46.8,62.4v3.2H53v-3.2H46.8z M71.7,62.4v3.2H78
		v-3.2H71.7z M121.5,62.4v3.2h3.2v-3.2H121.5z M60.8,123.1v3.2H64v-3.2H60.8z M60.8,73.3v6.2H64v-6.2H60.8z M60.8,48.4v6.2H64v-6.2
		H60.8z M46.8,62.4v3.2H53v-3.2H46.8z M60.8,48.4v6.2H64v-6.2H60.8z M60.8,73.3v6.2H64v-6.2H60.8z M64,62.4v-1.5h-3.2v1.5h-1.5v3.2
		h1.5v1.5H64v-1.5h1.5v-3.2H64z M71.7,62.4v3.2H78v-3.2H71.7z M71.7,62.4v3.2H78v-3.2H71.7z M64,60.9h-3.2v1.5h-1.5v3.2h1.5v1.5H64
		v-1.5h1.5v-3.2H64V60.9z M60.8,79.6H64v-6.2h-3.2V79.6z M64,48.4h-3.2v6.2H64V48.4z M46.8,65.6H53v-3.2h-6.2V65.6z M89.1,62.4
		C88.3,48.9,77.4,38.1,64,37.3V36h-3.2v1.3c-13.4,0.8-24.3,11.6-25.1,25.1h-1.3v3.2h1.3c0.8,13.4,11.6,24.3,25.1,25.1V92H64v-1.3
		c13.4-0.8,24.3-11.6,25.1-25.1h1.3v-3.2H89.1z M84.2,65.6C83.4,76.4,74.8,85,64,85.8v0h-3.2v0C50,85,41.4,76.4,40.6,65.6h0v-3.2h0
		C41.4,51.6,50,43,60.8,42.2v0H64v0c10.8,0.8,19.4,9.4,20.2,20.2h0L84.2,65.6L84.2,65.6z M71.7,65.6H78v-3.2h-6.2V65.6z M64,60.9
		h-3.2v1.5h-1.5v3.2h1.5v1.5H64v-1.5h1.5v-3.2H64V60.9z M60.8,79.6H64v-6.2h-3.2V79.6z M64,48.4h-3.2v6.2H64V48.4z M46.8,65.6H53
		v-3.2h-6.2V65.6z M89.1,62.4C88.3,48.9,77.4,38.1,64,37.3V36h-3.2v1.3c-13.4,0.8-24.3,11.6-25.1,25.1h-1.3v3.2h1.3
		c0.8,13.4,11.6,24.3,25.1,25.1V92H64v-1.3c13.4-0.8,24.3-11.6,25.1-25.1h1.3v-3.2H89.1z M84.2,65.6C83.4,76.4,74.8,85,64,85.8v0
		h-3.2v0C50,85,41.4,76.4,40.6,65.6h0v-3.2h0C41.4,51.6,50,43,60.8,42.2v0H64v0c10.8,0.8,19.4,9.4,20.2,20.2h0L84.2,65.6L84.2,65.6z
		 M71.7,65.6H78v-3.2h-6.2V65.6z M64,60.9h-3.2v1.5h-1.5v3.2h1.5v1.5H64v-1.5h1.5v-3.2H64V60.9z M60.8,79.6H64v-6.2h-3.2V79.6z
		 M64,48.4h-3.2v6.2H64V48.4z M46.8,65.6H53v-3.2h-6.2V65.6z M62.4,9.7C32.5,9.7,8.1,34.1,8.1,64c0,29.9,24.4,54.3,54.3,54.3
		s54.3-24.4,54.3-54.3C116.7,34.1,92.3,9.7,62.4,9.7z M64,113.4v-2.7h-3.2v2.7c-26-0.8-46.9-21.8-47.8-47.8h2.7v-3.2H13
		c0.8-26,21.8-46.9,47.8-47.8v2.7H64v-2.7c26,0.8,46.9,21.8,47.8,47.8h-2.7v3.2h2.7C110.9,91.6,90,112.6,64,113.4z M64,37.3V36h-3.2
		v1.3c-13.4,0.8-24.3,11.6-25.1,25.1h-1.3v3.2h1.3c0.8,13.4,11.6,24.3,25.1,25.1V92H64v-1.3c13.4-0.8,24.3-11.6,25.1-25.1h1.3v-3.2
		h-1.3C88.3,48.9,77.4,38.1,64,37.3z M84.2,65.6C83.4,76.4,74.8,85,64,85.8v0h-3.2v0C50,85,41.4,76.4,40.6,65.6h0v-3.2h0
		C41.4,51.6,50,43,60.8,42.2v0H64v0c10.8,0.8,19.4,9.4,20.2,20.2h0L84.2,65.6L84.2,65.6z M71.7,65.6H78v-3.2h-6.2V65.6z M64,60.9
		h-3.2v1.5h-1.5v3.2h1.5v1.5H64v-1.5h1.5v-3.2H64V60.9z M60.8,79.6H64v-6.2h-3.2V79.6z M64,48.4h-3.2v6.2H64V48.4z M46.8,65.6H53
		v-3.2h-6.2V65.6z M46.8,62.4v3.2H53v-3.2H46.8z M60.8,48.4v6.2H64v-6.2H60.8z M60.8,73.3v6.2H64v-6.2H60.8z M64,62.4v-1.5h-3.2v1.5
		h-1.5v3.2h1.5v1.5H64v-1.5h1.5v-3.2H64z M71.7,62.4v3.2H78v-3.2H71.7z M71.7,62.4v3.2H78v-3.2H71.7z M64,60.9h-3.2v1.5h-1.5v3.2
		h1.5v1.5H64v-1.5h1.5v-3.2H64V60.9z M60.8,79.6H64v-6.2h-3.2V79.6z M64,48.4h-3.2v6.2H64V48.4z M46.8,65.6H53v-3.2h-6.2V65.6z
		 M89.1,62.4C88.3,48.9,77.4,38.1,64,37.3V36h-3.2v1.3c-13.4,0.8-24.3,11.6-25.1,25.1h-1.3v3.2h1.3c0.8,13.4,11.6,24.3,25.1,25.1V92
		H64v-1.3c13.4-0.8,24.3-11.6,25.1-25.1h1.3v-3.2H89.1z M84.2,65.6C83.4,76.4,74.8,85,64,85.8v0h-3.2v0C50,85,41.4,76.4,40.6,65.6h0
		v-3.2h0C41.4,51.6,50,43,60.8,42.2v0H64v0c10.8,0.8,19.4,9.4,20.2,20.2h0L84.2,65.6L84.2,65.6z M71.7,65.6H78v-3.2h-6.2V65.6z
		 M64,60.9h-3.2v1.5h-1.5v3.2h1.5v1.5H64v-1.5h1.5v-3.2H64V60.9z M60.8,79.6H64v-6.2h-3.2V79.6z M64,48.4h-3.2v6.2H64V48.4z
		 M46.8,65.6H53v-3.2h-6.2V65.6z M46.8,62.4v3.2H53v-3.2H46.8z M60.8,48.4v6.2H64v-6.2H60.8z M60.8,73.3v6.2H64v-6.2H60.8z M64,62.4
		v-1.5h-3.2v1.5h-1.5v3.2h1.5v1.5H64v-1.5h1.5v-3.2H64z M71.7,62.4v3.2H78v-3.2H71.7z M71.7,62.4v3.2H78v-3.2H71.7z M64,60.9h-3.2
		v1.5h-1.5v3.2h1.5v1.5H64v-1.5h1.5v-3.2H64V60.9z M60.8,79.6H64v-6.2h-3.2V79.6z M64,48.4h-3.2v6.2H64V48.4z M46.8,65.6H53v-3.2
		h-6.2V65.6z M89.1,62.4C88.3,48.9,77.4,38.1,64,37.3V36h-3.2v1.3c-13.4,0.8-24.3,11.6-25.1,25.1h-1.3v3.2h1.3
		c0.8,13.4,11.6,24.3,25.1,25.1V92H64v-1.3c13.4-0.8,24.3-11.6,25.1-25.1h1.3v-3.2H89.1z M84.2,65.6C83.4,76.4,74.8,85,64,85.8v0
		h-3.2v0C50,85,41.4,76.4,40.6,65.6h0v-3.2h0C41.4,51.6,50,43,60.8,42.2v0H64v0c10.8,0.8,19.4,9.4,20.2,20.2h0L84.2,65.6L84.2,65.6z
		 M71.7,65.6H78v-3.2h-6.2V65.6z M64,60.9h-3.2v1.5h-1.5v3.2h1.5v1.5H64v-1.5h1.5v-3.2H64V60.9z M60.8,79.6H64v-6.2h-3.2V79.6z
		 M64,48.4h-3.2v6.2H64V48.4z M46.8,65.6H53v-3.2h-6.2V65.6z M46.8,62.4v3.2H53v-3.2H46.8z M60.8,48.4v6.2H64v-6.2H60.8z M60.8,73.3
		v6.2H64v-6.2H60.8z M64,62.4v-1.5h-3.2v1.5h-1.5v3.2h1.5v1.5H64v-1.5h1.5v-3.2H64z M71.7,62.4v3.2H78v-3.2H71.7z M71.7,62.4v3.2H78
		v-3.2H71.7z M64,60.9h-3.2v1.5h-1.5v3.2h1.5v1.5H64v-1.5h1.5v-3.2H64V60.9z M60.8,79.6H64v-6.2h-3.2V79.6z M64,48.4h-3.2v6.2H64
		V48.4z M46.8,65.6H53v-3.2h-6.2V65.6z M89.1,62.4C88.3,48.9,77.4,38.1,64,37.3V36h-3.2v1.3c-13.4,0.8-24.3,11.6-25.1,25.1h-1.3v3.2
		h1.3c0.8,13.4,11.6,24.3,25.1,25.1V92H64v-1.3c13.4-0.8,24.3-11.6,25.1-25.1h1.3v-3.2H89.1z M84.2,65.6C83.4,76.4,74.8,85,64,85.8
		v0h-3.2v0C50,85,41.4,76.4,40.6,65.6h0v-3.2h0C41.4,51.6,50,43,60.8,42.2v0H64v0c10.8,0.8,19.4,9.4,20.2,20.2h0L84.2,65.6
		L84.2,65.6z M71.7,65.6H78v-3.2h-6.2V65.6z M64,60.9h-3.2v1.5h-1.5v3.2h1.5v1.5H64v-1.5h1.5v-3.2H64V60.9z M60.8,79.6H64v-6.2h-3.2
		V79.6z M64,48.4h-3.2v6.2H64V48.4z M46.8,65.6H53v-3.2h-6.2V65.6z M46.8,62.4v3.2H53v-3.2H46.8z M60.8,48.4v6.2H64v-6.2H60.8z
		 M60.8,73.3v6.2H64v-6.2H60.8z M64,62.4v-1.5h-3.2v1.5h-1.5v3.2h1.5v1.5H64v-1.5h1.5v-3.2H64z M71.7,62.4v3.2H78v-3.2H71.7z
		 M71.7,62.4v3.2H78v-3.2H71.7z M64,60.9h-3.2v1.5h-1.5v3.2h1.5v1.5H64v-1.5h1.5v-3.2H64V60.9z M60.8,79.6H64v-6.2h-3.2V79.6z
		 M64,48.4h-3.2v6.2H64V48.4z M46.8,65.6H53v-3.2h-6.2V65.6z M89.1,62.4C88.3,48.9,77.4,38.1,64,37.3V36h-3.2v1.3
		c-13.4,0.8-24.3,11.6-25.1,25.1h-1.3v3.2h1.3c0.8,13.4,11.6,24.3,25.1,25.1V92H64v-1.3c13.4-0.8,24.3-11.6,25.1-25.1h1.3v-3.2H89.1
		z M84.2,65.6C83.4,76.4,74.8,85,64,85.8v0h-3.2v0C50,85,41.4,76.4,40.6,65.6h0v-3.2h0C41.4,51.6,50,43,60.8,42.2v0H64v0
		c10.8,0.8,19.4,9.4,20.2,20.2h0L84.2,65.6L84.2,65.6z M71.7,65.6H78v-3.2h-6.2V65.6z M64,60.9h-3.2v1.5h-1.5v3.2h1.5v1.5H64v-1.5
		h1.5v-3.2H64V60.9z M60.8,79.6H64v-6.2h-3.2V79.6z M64,48.4h-3.2v6.2H64V48.4z M46.8,65.6H53v-3.2h-6.2V65.6z M40.6,62.4
		c0,0.5-0.1,1.1-0.1,1.6c0,0.6,0,1.1,0.1,1.6h0L40.6,62.4L40.6,62.4z M46.8,62.4v3.2H53v-3.2H46.8z M60.8,48.4v6.2H64v-6.2H60.8z
		 M60.8,73.3v6.2H64v-6.2H60.8z M64,62.4v-1.5h-3.2v1.5h-1.5v3.2h1.5v1.5H64v-1.5h1.5v-3.2H64z M71.7,62.4v3.2H78v-3.2H71.7z
		 M64,62.4v-1.5h-3.2v1.5h-1.5v3.2h1.5v1.5H64v-1.5h1.5v-3.2H64z M60.8,1.6v3.2H64V1.6H60.8z M124.8,111.7v13.1h-13.1v3.2H128v-16.3
		H124.8z M3.2,124.8v-13.1H0V128h16.3v-3.2H3.2z M112.1,0v3.2h12.6v13.1h3.2V0H112.1z M0,0v16.3h3.2V3.2h13.1V0H0z M62.4,22.7
		c-8.8,0-17,2.8-23.8,7.6c-1.1-0.7-2.4-1.1-3.8-1.1c-4,0-7.3,3.3-7.3,7.3c0,1.4,0.4,2.7,1.1,3.8C23.9,47,21.1,55.2,21.1,64
		c0,22.8,18.5,41.3,41.3,41.3s41.3-18.5,41.3-41.3S85.2,22.7,62.4,22.7z M64,100.4v-2.2h-3.2v2.2c-18.8-0.8-34-16-34.8-34.8h2.2
		v-3.2H26c0.3-7.1,2.6-13.6,6.4-19.1c0.8,0.3,1.6,0.4,2.5,0.4c4,0,7.3-3.3,7.3-7.3c0-0.9-0.1-1.7-0.4-2.5c5.5-3.8,12-6.1,19.1-6.4
		v2.2H64v-2.2c18.8,0.8,34,16,34.8,34.8h-2.2v3.2h2.2C98,84.4,82.8,99.6,64,100.4z"/>
	<path id="icon:1_1_" class="st1" d="M78.1,64.9h18.6c0.5,8.2,7.3,14.8,15.7,14.8c8.7,0,15.7-7,15.7-15.7c0-8.6-7-15.7-15.7-15.7
		c-7.9,0-14.4,5.8-15.5,13.4H77.9l-2.9-7.2l12.8-12.8c6.2,5.3,15.5,5.1,21.4-0.8c6.1-6.1,6.1-16.1,0-22.2c-6.1-6.1-16.1-6.1-22.2,0
		c-5.6,5.6-6.1,14.5-1.4,20.6l-13,13l-7.1-3.1v-18c7.9-0.8,14.1-7.5,14.1-15.6C79.7,7,72.7,0,64,0c-8.7,0-15.7,7-15.7,15.7
		c0,8.1,6.2,14.8,14.1,15.6v18.1l-7.2,2.8h0L42.3,39.4c4.7-6.1,4.2-15-1.4-20.6c-6.1-6.1-16.1-6.1-22.2,0c-6.1,6.1-6.1,16.1,0,22.2
		c5.9,5.9,15.2,6.1,21.4,0.8L53,54.6l-3,7.1H31.2c-1.1-7.6-7.6-13.4-15.5-13.4C7,48.3,0,55.3,0,64c0,8.7,7,15.7,15.7,15.7
		c8.3,0,15.2-6.5,15.7-14.8h18.8l2.8,7.2L39.4,85.7c-6.2-4.7-15-4.2-20.6,1.4c-6.1,6.1-6.1,16.1,0,22.2c6.1,6.1,16.1,6.1,22.2,0
		c5.8-5.8,6.1-15.2,0.8-21.4l13.6-13.6l7.1,3.1v19.3c-7.9,0.8-14.1,7.5-14.1,15.6c0,8.7,7,15.7,15.7,15.7c8.7,0,15.7-7,15.7-15.7
		c0-8.1-6.2-14.8-14.1-15.6V77.3l7.2-2.9l13.5,13.5c-5.3,6.1-5.1,15.5,0.8,21.4c6.1,6.1,16.1,6.1,22.2,0c6.1-6.1,6.1-16.1,0-22.2
		c-5.6-5.6-14.5-6.1-20.6-1.4L75,72v0L78.1,64.9z M111.1,76.4h1.5v-9.8c1.3-0.2,2.2-1.3,2.2-2.6c0-0.7-0.3-1.3-0.7-1.7l1.1-1.1
		l-1.9-9.5h-1.5v9.8c-0.3,0-0.6,0.2-0.9,0.3H98.9c1.1-6.4,6.7-11.3,13.4-11.3c7.5,0,13.5,6.1,13.5,13.5c0,7.5-6.1,13.6-13.5,13.6
		c-7.2,0-13-5.6-13.5-12.6h11.1c0.1,0.3,0.3,0.6,0.5,0.8l-1.1,1.1L111.1,76.4z M88.6,20.3c5.3-5.3,13.9-5.3,19.2,0
		c5.3,5.3,5.3,13.9,0,19.2c-5,5-13,5.3-18.3,0.8l7.9-7.9c0.2,0.1,0.5,0.1,0.7,0.1l0,1.6l8.1,5.4l1.1-1.1l-6.9-6.9
		c0.8-1,0.7-2.5-0.2-3.4c-0.5-0.5-1.1-0.7-1.7-0.8l0-1.6l-8.1-5.4l-1.1,1.1l6.9,6.9c-0.3,0.4-0.4,0.8-0.5,1.2l-8.4,8.4
		C83.3,32.5,83.8,25,88.6,20.3z M33,30l1.1,0l5.4-8.1l-1.1-1.1l-6.9,6.9c-1-0.8-2.5-0.7-3.4,0.2c-0.5,0.5-0.7,1.1-0.8,1.7l-1.6,0
		l-5.4,8.1l1.1,1.1l6.9-6.9c0.7,0.5,1.6,0.7,2.4,0.4l7.9,7.9c-5.3,4.5-13.3,4.2-18.3-0.8c-5.3-5.3-5.3-13.9,0-19.2
		c5.3-5.3,13.9-5.3,19.2,0c4.8,4.8,5.2,12.3,1.4,17.6L33,30z M15.7,77.6C8.2,77.6,2.1,71.5,2.1,64c0-7.5,6.1-13.5,13.5-13.5
		c6.7,0,12.3,4.9,13.4,11.3H18.2l0.6-0.5l-1.9-9.5h-1.5v9.8c-1.3,0.2-2.2,1.3-2.2,2.6c0,0.7,0.3,1.3,0.7,1.7l-1.1,1.1l1.9,9.5h1.5
		v-9.8c1-0.1,1.7-0.8,2.1-1.7h11.1C28.7,72,22.9,77.6,15.7,77.6z M39.4,107.7c-5.3,5.3-13.9,5.3-19.2,0c-5.3-5.3-5.3-13.9,0-19.2
		c4.8-4.8,12.3-5.2,17.6-1.4L30,95l0-1.1l-8.1-5.4l-1.1,1.1l6.9,6.9c-0.8,1-0.7,2.5,0.2,3.4c0.5,0.5,1.1,0.7,1.7,0.8l0,1.6l8.1,5.4
		l1.1-1.1l-6.9-6.9c0.5-0.7,0.7-1.6,0.4-2.4l7.9-7.9C44.7,94.7,44.4,102.7,39.4,107.7z M77.5,112.3c0,7.5-6.1,13.6-13.5,13.6
		c-7.5,0-13.5-6.1-13.5-13.6c0-6.9,5.2-12.7,11.9-13.5v11.4c0,0-0.1,0.1-0.1,0.1l-1.1-1.1l-9.6,1.9v1.5h9.8c0.2,1.3,1.3,2.3,2.6,2.3
		c0.7,0,1.3-0.3,1.7-0.7l1.1,1.1l9.6-1.9v-1.5h-9.8c-0.1-0.7-0.4-1.3-1-1.7V98.8C72.3,99.6,77.5,105.4,77.5,112.3z M64,13.1
		c-0.7,0-1.3,0.3-1.7,0.7l-1.1-1.1l-9.6,1.9v1.5h9.8c0.1,0.7,0.4,1.3,1,1.7v11.4c-6.7-0.8-11.9-6.5-11.9-13.5
		c0-7.5,6.1-13.5,13.5-13.5c7.5,0,13.5,6.1,13.5,13.5c0,6.9-5.2,12.7-11.9,13.5V17.7c0,0,0.1-0.1,0.1-0.1l1.1,1.1l9.6-1.9v-1.5h-9.8
		C66.4,14.1,65.3,13.1,64,13.1z M95.7,97.3c-0.1,0.2-0.1,0.5-0.1,0.7L94,98l-5.4,8.1l1.1,1.1l6.9-6.9c1,0.8,2.5,0.7,3.4-0.2
		c0.5-0.5,0.7-1.1,0.8-1.7l1.6,0l5.4-8.1l-1.1-1.1l-6.9,6.9c-0.4-0.3-0.8-0.4-1.2-0.5l-8.4-8.4c5.3-3.9,12.8-3.4,17.6,1.4
		c5.3,5.3,5.3,13.9,0,19.2c-5.3,5.3-13.9,5.3-19.2,0c-5-5-5.3-13-0.8-18.3L95.7,97.3z"/>
</g>
<g id="row1">
	<path id="icon:4" class="st2" d="M63.8,78.2c-2.5,0-4.5,2-4.5,4.4c0,2.5,2,4.4,4.5,4.4c2.5,0,4.6-2,4.6-4.4
		C68.3,80.2,66.3,78.2,63.8,78.2z M63.8,78.2c-2.5,0-4.5,2-4.5,4.4c0,2.5,2,4.4,4.5,4.4c2.5,0,4.6-2,4.6-4.4
		C68.3,80.2,66.3,78.2,63.8,78.2z M63.8,78.2c-2.5,0-4.5,2-4.5,4.4c0,2.5,2,4.4,4.5,4.4c2.5,0,4.6-2,4.6-4.4
		C68.3,80.2,66.3,78.2,63.8,78.2z M63.8,78.2c-2.5,0-4.5,2-4.5,4.4c0,2.5,2,4.4,4.5,4.4c2.5,0,4.6-2,4.6-4.4
		C68.3,80.2,66.3,78.2,63.8,78.2z M63.8,78.2c-2.5,0-4.5,2-4.5,4.4c0,2.5,2,4.4,4.5,4.4c2.5,0,4.6-2,4.6-4.4
		C68.3,80.2,66.3,78.2,63.8,78.2z M63.8,78.2c-2.5,0-4.5,2-4.5,4.4c0,2.5,2,4.4,4.5,4.4c2.5,0,4.6-2,4.6-4.4
		C68.3,80.2,66.3,78.2,63.8,78.2z M63.8,78.2c-2.5,0-4.5,2-4.5,4.4c0,2.5,2,4.4,4.5,4.4c2.5,0,4.6-2,4.6-4.4
		C68.3,80.2,66.3,78.2,63.8,78.2z M0,46.4C0,49.8,15.3,48,15.3,48v-2.7C15.3,45.2,0,42.6,0,46.4z M21.5,45.2V48
		c0,0,15.3,1.8,15.3-1.6C36.8,42.6,21.5,45.2,21.5,45.2z M91.2,46.4c0,3.4,15.3,1.6,15.3,1.6v-2.7C106.5,45.2,91.2,42.6,91.2,46.4z
		 M112.7,45.2V48c0,0,15.3,1.8,15.3-1.6C128,42.6,112.7,45.2,112.7,45.2z M63.8,78.2c-2.5,0-4.5,2-4.5,4.4c0,2.5,2,4.4,4.5,4.4
		c2.5,0,4.6-2,4.6-4.4C68.3,80.2,66.3,78.2,63.8,78.2z M63.8,78.2c-2.5,0-4.5,2-4.5,4.4c0,2.5,2,4.4,4.5,4.4c2.5,0,4.6-2,4.6-4.4
		C68.3,80.2,66.3,78.2,63.8,78.2z M120.3,55.7c-0.4-0.4-0.9-0.6-1.4-0.6h-3.3v-0.9c0-2.2-1.8-4-4.1-4h-0.3v-5.4c0-1-0.9-1.7-1.9-1.6
		c-0.8,0.1-1.3,0.9-1.3,1.7v5.3h-0.3c-2.2,0-4.1,1.8-4.1,4v0.9H90.9L78.7,65h-1.8l-4.9-8.8c-0.7-1.3-2.1-2.1-3.6-2.1H64v-9.6
		c1.5-0.4,2.6-1.8,2.6-3.4c0-2-1.6-3.6-3.6-3.6s-3.6,1.6-3.6,3.6c0,1.6,1.1,3,2.6,3.4v9.6h-3.7c-1.6,0-3,0.9-3.7,2.3L50.5,65H49
		l-12.2-9.9H24.4v-0.9c0-2.2-1.8-4-4.1-4H20v-5.3c0-0.8-0.5-1.5-1.3-1.7c-1-0.2-1.9,0.6-1.9,1.6v5.4h-0.3c-2.2,0-4.1,1.8-4.1,4v0.9
		H8.8c-1.1,0-2,0.9-2,2c0,0.5,0.2,1,0.6,1.4c0.4,0.4,0.9,0.6,1.4,0.6h26.5l10.9,8.8l-8.9,19.5h-3.7c-0.8,0-1.5,0.7-1.5,1.5
		c0,0.8,0.7,1.5,1.5,1.5h8.1c0.8,0,1.5-0.7,1.5-1.5c0-0.8-0.7-1.5-1.5-1.5h-1.1L49,69h12.4v5.9H51c-1,0-1.9,0.8-1.9,1.8v11.9
		c0,1,0.8,1.8,1.9,1.8h26.2c1,0,1.9-0.8,1.9-1.9V76.7c0-1-0.8-1.8-1.8-1.8h-1.5v-0.1c0-0.7-0.6-1.3-1.3-1.3h-1.3
		c-0.7,0-1.3,0.6-1.3,1.3v0.1h-6.1V69h12.4l8.4,18.4h-1.3c-0.8,0-1.5,0.7-1.5,1.5c0,0.8,0.7,1.5,1.5,1.5h8.1c0.8,0,1.5-0.7,1.5-1.5
		c0-0.8-0.7-1.5-1.5-1.5h-3.5l-8.8-19.2l11.3-9.1h26.4c1.1,0,2-0.8,2.1-1.8C120.9,56.6,120.7,56.1,120.3,55.7z M73,77.8h2.1
		c0.6,0,1.1,0.5,1.1,1.1c0,0.6-0.5,1.1-1.1,1.1H73c-0.6,0-1.1-0.5-1.1-1.1C71.9,78.3,72.4,77.8,73,77.8z M70.3,82.6
		c0,3.5-2.9,6.4-6.5,6.4c-3.6,0-6.5-2.9-6.5-6.4c0-3.5,2.9-6.4,6.5-6.4C67.4,76.2,70.3,79.1,70.3,82.6z"/>
	<path id="icon:3" class="st3" d="M18.6,36.4c-0.6-0.6-1.5-1-2.5-1c-1.7-0.1-3.2,1.1-3.6,2.7h7.1C19.4,37.5,19.1,36.9,18.6,36.4z
		 M31.3,40.1H1.1c-0.6,0-1.1,0.5-1.1,1.1s0.5,1.1,1.1,1.1h30.1c0.6,0,1.1-0.5,1.1-1.1S31.9,40.1,31.3,40.1z M114.4,36.4
		c-0.6-0.6-1.5-1-2.5-1c-1.7-0.1-3.2,1.1-3.6,2.7h7.1C115.2,37.5,114.8,36.9,114.4,36.4z M126.9,40.1H96.7c-0.6,0-1.1,0.5-1.1,1.1
		s0.5,1.1,1.1,1.1h30.1c0.6,0,1.1-0.5,1.1-1.1S127.5,40.1,126.9,40.1z M118.7,49.2V56c0,3.8-3.1,6.8-7,6.8c-1.9,0-3.6-0.8-4.9-2
		c-1.3-1.2-2-2.9-2-4.8v-4.9H85.2l-4.1,8c3,3.2,4.8,7.5,4.8,12.2v19.7c0,0.9-0.7,1.5-1.6,1.5l0,0c-0.9,0-1.6-0.7-1.6-1.5v-4.8H81
		v-6.7h1.9v-8.3c0-3.5-1.2-6.7-3.2-9.2l-1.7,3.3c-0.9,1.7-2.7,2.8-4.6,2.8h-22c-1.9,0-3.7-1.1-4.6-2.8l-1.7-3.3
		c-2,2.6-3.2,5.8-3.2,9.2v8.3h1.8v6.7h-1.8v4.8c0,0.9-0.7,1.5-1.6,1.5h0c-0.9,0-1.6-0.7-1.6-1.5V71.3c0-4.7,1.8-9,4.8-12.2l-4.1-8
		H23V56c0,3.8-3.1,6.8-6.9,6.8c-1.9,0-3.7-0.8-4.9-2c-1.3-1.2-2-2.9-2-4.8v-6.8h3.3v-4.7h7.3V47h28.3v-4.2h28.8V47h31.3v-2.5h7.3
		v4.7H118.7z"/>
	<path id="icon:2" class="st2" d="M64,128C28.7,128,0,99.3,0,64S28.7,0,64,0s64,28.7,64,64S99.3,128,64,128z M64,5.7
		C31.9,5.7,5.7,31.9,5.7,64s26.1,58.3,58.3,58.3s58.3-26.1,58.3-58.3S96.1,5.7,64,5.7z M64,110.8c-25.8,0-46.8-21-46.8-46.8h1.9
		c0,24.8,20.1,44.9,44.9,44.9V110.8z M110.8,64h-1.9c0-24.8-20.1-44.9-44.9-44.9v-1.9C89.8,17.2,110.8,38.2,110.8,64z M64,101.3
		c-20.5,0-37.3-16.7-37.3-37.3h1.9c0,19.5,15.9,35.3,35.3,35.3V101.3z M101.3,64h-1.9c0-19.5-15.9-35.3-35.3-35.3v-1.9
		C84.5,26.7,101.3,43.5,101.3,64z M72.8,70.5c3.2-4.3,2.9-10.5-1.1-14.5c-4-4-10.3-4.3-14.7-0.9c-9.9-25.4-29.8-27.8-29.8-27.8
		C31.2,42.5,43,52.6,55.1,57.1c-3.4,4.4-3,10.6,1,14.6s10.3,4.3,14.7,0.9c5,14.9,17.7,24.4,30.1,28C93.5,79,79.1,72.4,72.8,70.5z"/>
	<path id="icon:1" class="st2" d="M118.4,101.3c0,9.4-7.5,17-16.8,17v1.6c10.1,0,18.4-8.3,18.4-18.6H118.4z M118.4,101.3
		c0,9.4-7.5,17-16.8,17v1.6c10.1,0,18.4-8.3,18.4-18.6H118.4z M118.4,101.3c0,9.4-7.5,17-16.8,17v1.6c10.1,0,18.4-8.3,18.4-18.6
		H118.4z M118.4,101.3c0,9.4-7.5,17-16.8,17v1.6c10.1,0,18.4-8.3,18.4-18.6H118.4z M118.4,101.3c0,9.4-7.5,17-16.8,17v1.6
		c10.1,0,18.4-8.3,18.4-18.6H118.4z M118.4,101.3c0,9.4-7.5,17-16.8,17v1.6c10.1,0,18.4-8.3,18.4-18.6H118.4z M9.6,101.3H8
		c0,10.3,8.2,18.6,18.4,18.6v-1.6C17.2,118.3,9.6,110.6,9.6,101.3z M9.6,101.3H8c0,10.3,8.2,18.6,18.4,18.6v-1.6
		C17.2,118.3,9.6,110.6,9.6,101.3z M9.6,101.3H8c0,10.3,8.2,18.6,18.4,18.6v-1.6C17.2,118.3,9.6,110.6,9.6,101.3z M9.6,101.3H8
		c0,10.3,8.2,18.6,18.4,18.6v-1.6C17.2,118.3,9.6,110.6,9.6,101.3z M9.6,101.3H8c0,10.3,8.2,18.6,18.4,18.6v-1.6
		C17.2,118.3,9.6,110.6,9.6,101.3z M9.6,101.3H8c0,10.3,8.2,18.6,18.4,18.6v-1.6C17.2,118.3,9.6,110.6,9.6,101.3z M9.6,101.3H8
		c0,10.3,8.2,18.6,18.4,18.6v-1.6C17.2,118.3,9.6,110.6,9.6,101.3z M9.6,101.3H8c0,10.3,8.2,18.6,18.4,18.6v-1.6
		C17.2,118.3,9.6,110.6,9.6,101.3z M101.6,8.1v1.6c9.3,0,16.8,7.6,16.8,17h1.6C120,16.5,111.7,8.1,101.6,8.1z M101.6,8.1v1.6
		c9.3,0,16.8,7.6,16.8,17h1.6C120,16.5,111.7,8.1,101.6,8.1z M101.6,8.1v1.6c9.3,0,16.8,7.6,16.8,17h1.6
		C120,16.5,111.7,8.1,101.6,8.1z M101.6,8.1v1.6c9.3,0,16.8,7.6,16.8,17h1.6C120,16.5,111.7,8.1,101.6,8.1z M101.6,8.1v1.6
		c9.3,0,16.8,7.6,16.8,17h1.6C120,16.5,111.7,8.1,101.6,8.1z M8,27h1.6c0-9.4,7.5-17,16.8-17V8.4C16.3,8.4,8,16.7,8,27z M8,27h1.6
		c0-9.4,7.5-17,16.8-17V8.4C16.3,8.4,8,16.7,8,27z M118.4,101.3c0,9.4-7.5,17-16.8,17v1.6c10.1,0,18.4-8.3,18.4-18.6H118.4z
		 M9.6,101.3H8c0,10.3,8.2,18.6,18.4,18.6v-1.6C17.2,118.3,9.6,110.6,9.6,101.3z M8,27h1.6c0-9.4,7.5-17,16.8-17V8.4
		C16.3,8.4,8,16.7,8,27z M101.6,8.1v1.6c9.3,0,16.8,7.6,16.8,17h1.6C120,16.5,111.7,8.1,101.6,8.1z M101.6,74.5
		c-5.9,0-11.3,1.9-15.6,5.2l-2.4-2.8c-6.2-7.3-6.2-18,0-25.3l2.7-3.1c4.3,3.1,9.6,5,15.3,5c14.6,0,26.4-12,26.4-26.7
		C128,12,116.2,0,101.6,0C87.1,0,75.2,12,75.2,26.7c0,5.3,1.5,10.2,4.1,14.4L76,44c-7.2,6.3-17.8,6.3-25,0l-2.7-2.3
		c2.8-4.3,4.5-9.4,4.5-14.9C52.8,12,41,0,26.4,0C11.9,0,0,12,0,26.7c0,14.7,11.9,26.7,26.4,26.7c5.5,0,10.5-1.7,14.8-4.6l2.3,2.7
		c6.2,7.3,6.2,18,0,25.3l-2,2.4c-4.3-3-9.5-4.8-15.1-4.8C11.9,74.5,0,86.5,0,101.3C0,116,11.9,128,26.4,128
		c14.6,0,26.4-12,26.4-26.7c0-5.3-1.6-10.3-4.3-14.5l2.5-2.2c7.2-6.3,17.8-6.3,25,0l3.1,2.7c-2.5,4.1-3.9,8.9-3.9,14
		c0,14.7,11.9,26.7,26.4,26.7c14.6,0,26.4-12,26.4-26.7C128,86.5,116.2,74.5,101.6,74.5z M101.6,4.9c11.9,0,21.6,9.8,21.6,21.9
		c0,12.1-9.7,21.9-21.6,21.9c-4.5,0-8.7-1.4-12.2-3.8l8.5-10c0.8,0.2,1.6,0.4,2.4,0.4c4.4,0,8-3.6,8-8.1s-3.6-8.1-8-8.1
		c-4.4,0-8,3.6-8,8.1c0,0.9,0.1,1.7,0.4,2.5L83,37.9c-1.9-3.3-3-7.1-3-11.1C80,14.7,89.7,4.9,101.6,4.9z M44.7,38.4l-10.3-8.9
		c0.2-0.8,0.4-1.6,0.4-2.5c0-4.5-3.6-8.1-8-8.1c-4.4,0-8,3.6-8,8.1s3.6,8.1,8,8.1c0.8,0,1.7-0.1,2.4-0.4L38,45.2
		c-3.3,2.2-7.3,3.5-11.6,3.5c-11.9,0-21.6-9.8-21.6-21.9c0-12.1,9.7-21.9,21.6-21.9C38.3,4.9,48,14.7,48,26.7
		C48,31,46.8,35,44.7,38.4z M48,101.3c0,12.1-9.7,21.9-21.6,21.9c-11.9,0-21.6-9.8-21.6-21.9c0-12.1,9.7-21.9,21.6-21.9
		c4.4,0,8.5,1.3,11.9,3.6l-9.1,10.8c-0.8-0.2-1.6-0.4-2.4-0.4c-4.4,0-8,3.6-8,8.1s3.6,8.1,8,8.1c4.4,0,8-3.6,8-8.1
		c0-0.9-0.1-1.7-0.4-2.5l10.5-9.1C46.9,93.2,48,97.1,48,101.3z M101.6,123.1c-11.9,0-21.6-9.8-21.6-21.9c0-3.9,1-7.6,2.8-10.8
		l9.9,8.6c-0.2,0.8-0.4,1.6-0.4,2.5c0,4.5,3.6,8.1,8,8.1c4.4,0,8-3.6,8-8.1s-3.6-8.1-8-8.1c-0.8,0-1.7,0.1-2.4,0.4l-8.8-10.4
		c3.5-2.6,7.8-4.1,12.5-4.1c11.9,0,21.6,9.8,21.6,21.9C123.2,113.3,113.5,123.1,101.6,123.1z"/>
</g>
</svg>
