<svg id="Capa_1" enable-background="new 0 0 512 512" height="512" viewBox="0 0 512 512" width="512" xmlns="http://www.w3.org/2000/svg"><g><path d="m360 0h-208c-25.916 0-47 21.084-47 47v418c0 25.916 21.084 47 47 47h208c25.916 0 47-21.084 47-47v-418c0-25.916-21.084-47-47-47zm17 465c0 9.374-7.626 17-17 17h-208c-9.374 0-17-7.626-17-17v-418c0-9.374 7.626-17 17-17h208c9.374 0 17 7.626 17 17z"/><path d="m264 425h-16c-8.284 0-15 6.716-15 15s6.716 15 15 15h16c8.284 0 15-6.716 15-15s-6.716-15-15-15z"/><path d="m256 161c-52.383 0-95 42.617-95 95s42.617 95 95 95 95-42.617 95-95-42.617-95-95-95zm63.233 80h-16.767c-.908-12.887-2.979-25.097-6.088-35.881 11.228 8.93 19.44 21.483 22.855 35.881zm-63.233 79.81c-1.747-1.145-5.975-5.733-9.983-17.252-3.221-9.254-5.405-20.484-6.4-32.558h32.768c-.996 12.074-3.18 23.303-6.4 32.558-4.01 11.518-8.238 16.107-9.985 17.252zm-16.384-79.81c.996-12.074 3.18-23.303 6.4-32.558 4.009-11.519 8.236-16.107 9.983-17.252 1.747 1.145 5.975 5.733 9.983 17.252 3.221 9.254 5.405 20.484 6.4 32.558zm-23.994-35.881c-3.109 10.784-5.18 22.994-6.088 35.881h-16.767c3.415-14.398 11.627-26.951 22.855-35.881zm-22.855 65.881h16.767c.908 12.887 2.979 25.097 6.088 35.881-11.228-8.93-19.44-21.483-22.855-35.881zm103.611 35.881c3.109-10.784 5.18-22.994 6.088-35.881h16.767c-3.415 14.398-11.627 26.951-22.855 35.881z"/><circle cx="256" cy="72.002" r="15"/></g></svg>