<?xml version="1.0" encoding="utf-8"?>
<!-- Generator: Adobe Illustrator 16.0.0, SVG Export Plug-In . SVG Version: 6.00 Build 0)  -->
<!DOCTYPE svg PUBLIC "-//W3C//DTD SVG 1.0//EN" "http://www.w3.org/TR/2001/REC-SVG-20010904/DTD/svg10.dtd">
<svg version="1.0" id="Layer_1" xmlns="http://www.w3.org/2000/svg" xmlns:xlink="http://www.w3.org/1999/xlink" x="0px" y="0px"
	 width="100px" height="100px" viewBox="0 0 100 100" enable-background="new 0 0 100 100" xml:space="preserve">
<path d="M83.333,10H16.667C13.001,10,10,13.001,10,16.667V70c0,3.665,3.001,6.667,6.667,6.667h30v6.666h-10
	C32.985,83.333,30,86.315,30,90l40-0.007c0-3.678-2.985-6.666-6.667-6.666h-10v-6.66h30C86.999,76.667,90,73.665,90,70V16.667
	C90,13.001,86.999,10,83.333,10z M37.155,51.465L33.62,55l-9.311-9.31c-1.302-1.303-1.302-3.412,0-4.714l9.311-9.31l3.535,3.535
	l-8.132,8.131L37.155,51.465z M49.229,58.333h-5.127l6.67-30h5.127L49.229,58.333z M75.69,45.69L66.38,55l-3.535-3.535l8.132-8.132
	l-8.132-8.131l3.535-3.535l9.311,9.31C76.992,42.272,76.992,44.388,75.69,45.69z"/>
</svg>
