<svg id="Capa_1" enable-background="new 0 0 512 512" height="512" viewBox="0 0 512 512" width="512" xmlns="http://www.w3.org/2000/svg"><g><path d="m400 289h-65v-242c0-25.916-21.084-47-47-47h-176c-25.916 0-47 21.084-47 47v337c0 25.916 21.084 47 47 47h82.034c6.79 45.769 46.339 81 93.966 81h64c52.383 0 95-42.617 95-95v-81c0-25.916-21.084-47-47-47zm-192 16c-8.284 0-15 6.716-15 15v81h-81c-9.374 0-17-7.626-17-17v-337c0-9.374 7.626-17 17-17h176c9.374 0 17 7.626 17 17v140.072c-3.745-1.223-7.704-1.943-11.802-2.056-11.724-.345-22.792 3.998-31.183 12.163-8.393 8.167-13.015 19.112-13.015 30.821v80.181c-5.274-2.054-11.008-3.181-17-3.181zm209 112c0 35.841-29.159 65-65 65h-64c-35.841 0-65-29.159-65-65v-82h9c9.374 0 17 7.626 17 17v32c0 8.284 6.716 15 15 15s15-6.716 15-15v-156c0-3.54 1.397-6.85 3.936-9.319 2.538-2.468 5.91-3.753 9.44-3.676 6.961.191 12.624 6.281 12.624 13.577v75.418c0 8.284 6.716 15 15 15h80c9.374 0 17 7.626 17 17z"/><circle cx="200" cy="71.994" r="15"/></g></svg>