<?xml version="1.0" encoding="utf-8"?>
<!-- Generator: Adobe Illustrator 19.2.1, SVG Export Plug-In . SVG Version: 6.00 Build 0)  -->
<svg version="1.1" id="Consultants_x0D_Network" xmlns="http://www.w3.org/2000/svg" xmlns:xlink="http://www.w3.org/1999/xlink"
	 x="0px" y="0px" width="203.3600006px" height="64.2600021px" viewBox="0 0 203.3600006 64.2600021"
	 enable-background="new 0 0 203.3600006 64.2600021" xml:space="preserve">
<g>
	<g id="XMLID_314_">
		<path id="XMLID_315_" d="M51.4311218,46.330101c-0.0780983,0.222599-1.3280983,4.5312004-4.375,8.982399
			c-2.6307983,3.8496017-5.3631973,7.6855011-9.669899,7.7636986c-4.2284927,0.080101-5.5897999-2.5098-10.4218998-2.5098
			c-4.8377991,0-6.3495941,2.4316025-10.3475933,2.589901c-4.1543064,0.1562004-7.3223066-4.1622009-9.9727058-7.9961014
			c-5.4276996-7.8437996-9.5682945-22.1621971-3.9999998-31.8203983c2.7577999-4.8027,7.7011995-7.8417997,13.0644999-7.9198999
			c4.0839987-0.0761003,7.9296999,2.7421999,10.4257994,2.7421999c2.4921989,0,7.169899-3.3926001,12.0878983-2.8944998
			c2.058506,0.0879002,7.8398018,0.8280993,11.5527,6.2636995c-0.294899,0.1875-6.8983994,4.0291996-6.8261909,12.0175018
			C43.034729,43.1113014,51.3335228,46.2910004,51.4311218,46.330101z M34.9995232,10.0839996
			C37.2104225,7.4102001,38.6929245,3.6973,38.2866211,0c-3.1777,0.1172-7.027298,2.1152-9.3026981,4.7852001
			c-2.044899,2.3631997-3.8379002,6.1444998-3.3516006,9.7656002C29.1733227,14.8261995,32.7983246,12.75,34.9995232,10.0839996z"/>
	</g>
	<g>
		<path d="M68.2104797,24.1112099c0-5.6904297,3.2119141-9.2763672,8.2294922-9.2763672
			c4.0722656,0,7.1474609,2.5029297,7.6210938,6.2509766h-2.7646484c-0.4980469-2.3037109-2.4150391-3.8105469-4.8564453-3.8105469
			c-3.2617188,0-5.3789062,2.6772461-5.3789062,6.8359375c0,4.1962891,2.0917969,6.8481445,5.3916016,6.8481445
			c2.5029297,0,4.2832031-1.2827148,4.84375-3.4487305h2.7763672c-0.6845703,3.7099609-3.4980469,5.8891602-7.6328125,5.8891602
			C71.3979797,33.3997841,68.2104797,29.8387489,68.2104797,24.1112099z"/>
		<path d="M85.6802063,26.5516396c0-4.1210938,2.4277344-6.7109375,6.2128906-6.7109375
			c3.7978516,0,6.2128906,2.5898438,6.2128906,6.7109375c0,4.1337891-2.4023438,6.7109375-6.2128906,6.7109375
			C88.0835266,33.2625771,85.6802063,30.6854286,85.6802063,26.5516396z M95.3677063,26.5516396
			c0-2.8261719-1.2949219-4.4951172-3.4746094-4.4951172c-2.1787109,0-3.4736328,1.6811523-3.4736328,4.4951172
			c0,2.8388672,1.2949219,4.4951172,3.4736328,4.4951172C94.0727844,31.0467567,95.3677063,29.3905067,95.3677063,26.5516396z"/>
		<path d="M100.3144836,20.0023232h2.5654297v2.2290039h0.0615234c0.7851562-1.5693359,2.1044922-2.378418,4.1220703-2.378418
			c2.8886719,0,4.5439453,1.8549805,4.5439453,4.855957v8.3920898h-2.7011719v-7.8691406
			c0-1.9672852-0.9091797-3.0629883-2.8017578-3.0629883c-1.9296875,0-3.1005859,1.3696289-3.1005859,3.3867188v7.5454102
			h-2.6894531V20.0023232z"/>
		<path d="M119.4746399,19.8529091c2.9013672,0,4.9804688,1.605957,5.0429688,3.9223633h-2.5273438
			c-0.1123047-1.1582031-1.0957031-1.8681641-2.5898438-1.8681641c-1.4570312,0-2.4287109,0.6728516-2.4287109,1.6933594
			c0,0.784668,0.6474609,1.3076172,2.0048828,1.6435547l2.2041016,0.5107422
			c2.6396484,0.6347656,3.6357422,1.6064453,3.6357422,3.5234375c0,2.3662109-2.2412109,3.984375-5.4414062,3.984375
			c-3.0878906,0-5.1669922-1.5810547-5.3662109-3.9716797h2.6640625c0.1865234,1.2578125,1.1953125,1.9296875,2.8271484,1.9296875
			c1.6054688,0,2.6142578-0.659668,2.6142578-1.7055664c0-0.809082-0.4980469-1.2451172-1.8681641-1.59375l-2.3398438-0.5727539
			c-2.3662109-0.5727539-3.5615234-1.7802734-3.5615234-3.5986328
			C114.3447571,21.4344521,116.4238586,19.8529091,119.4746399,19.8529091z"/>
		<path d="M138.5224915,33.100956h-2.5771484v-2.253418h-0.0625c-0.7470703,1.5683594-2.0546875,2.402832-4.0595703,2.402832
			c-2.8505859,0-4.5947266-1.8427734-4.5947266-4.8432617v-8.4047852h2.6894531v7.8813477
			c0,1.9921875,0.9472656,3.0507812,2.8017578,3.0507812c1.9423828,0,3.1132812-1.3447266,3.1132812-3.3867188v-7.5454102h2.6894531
			V33.100956z"/>
		<path d="M141.6572571,15.1336708h2.6894531V33.100956h-2.6894531V15.1336708z"/>
		<path d="M150.9804993,16.9022255v3.1000977h2.4902344v2.1293945h-2.4902344v7.2216797
			c0,1.1201172,0.4980469,1.6435547,1.59375,1.6435547c0.2744141,0,0.7099609-0.0375977,0.8847656-0.0625v2.1166992
			c-0.2988281,0.074707-0.8964844,0.1245117-1.4941406,0.1245117c-2.6523438,0-3.6855469-0.9960938-3.6855469-3.5361328v-7.5078125
			h-1.9052734v-2.1293945h1.9052734v-3.1000977H150.9804993z"/>
		<path d="M155.4355774,29.3778114c0-2.2910156,1.7558594-3.6728516,4.8681641-3.859375l3.5859375-0.1992188v-0.9960938
			c0-1.4570312-0.9589844-2.2788086-2.5898438-2.2788086c-1.4941406,0-2.5400391,0.7094727-2.7519531,1.8427734h-2.5146484
			c0.0742188-2.3657227,2.2783203-4.0463867,5.3417969-4.0463867c3.125,0,5.1914062,1.7055664,5.1914062,4.2832031v8.9770508
			h-2.5771484v-2.1538086h-0.0625c-0.7587891,1.456543-2.4150391,2.3779297-4.1337891,2.3779297
			C157.2285461,33.3250771,155.4355774,31.7313271,155.4355774,29.3778114z M163.889679,28.1951942v-1.0087891l-3.2246094,0.1992188
			c-1.6064453,0.0996094-2.515625,0.796875-2.515625,1.9179688c0,1.1455078,0.9462891,1.8925781,2.390625,1.8925781
			C162.4199524,31.1961708,163.889679,29.9012489,163.889679,28.1951942z"/>
		<path d="M169.5527649,20.0023232h2.5654297v2.2290039h0.0615234c0.7851562-1.5693359,2.1044922-2.378418,4.1220703-2.378418
			c2.8886719,0,4.5439453,1.8549805,4.5439453,4.855957v8.3920898h-2.7011719v-7.8691406
			c0-1.9672852-0.9091797-3.0629883-2.8017578-3.0629883c-1.9296875,0-3.1005859,1.3696289-3.1005859,3.3867188v7.5454102
			h-2.6894531V20.0023232z"/>
		<path d="M187.0498352,16.9022255v3.1000977h2.4902344v2.1293945h-2.4902344v7.2216797
			c0,1.1201172,0.4980469,1.6435547,1.59375,1.6435547c0.2744141,0,0.7099609-0.0375977,0.8837891-0.0625v2.1166992
			c-0.2988281,0.074707-0.8964844,0.1245117-1.4941406,0.1245117c-2.6513672,0-3.6855469-0.9960938-3.6855469-3.5361328v-7.5078125
			h-1.9042969v-2.1293945h1.9042969v-3.1000977H187.0498352z"/>
		<path d="M197.0215149,19.8529091c2.9013672,0,4.9804688,1.605957,5.0429688,3.9223633h-2.5273438
			c-0.1123047-1.1582031-1.0957031-1.8681641-2.5898438-1.8681641c-1.4570312,0-2.4287109,0.6728516-2.4287109,1.6933594
			c0,0.784668,0.6474609,1.3076172,2.0048828,1.6435547l2.2041016,0.5107422
			c2.6396484,0.6347656,3.6357422,1.6064453,3.6357422,3.5234375c0,2.3662109-2.2412109,3.984375-5.4414062,3.984375
			c-3.0878906,0-5.1669922-1.5810547-5.3662109-3.9716797h2.6640625c0.1865234,1.2578125,1.1953125,1.9296875,2.8271484,1.9296875
			c1.6054688,0,2.6142578-0.659668,2.6142578-1.7055664c0-0.809082-0.4980469-1.2451172-1.8681641-1.59375l-2.3398438-0.5727539
			c-2.3662109-0.5727539-3.5615234-1.7802734-3.5615234-3.5986328
			C191.8916321,21.4344521,193.9707336,19.8529091,197.0215149,19.8529091z"/>
		<path d="M69.8784485,63.1014442V45.1346474h2.5273438l9.3134766,13.2480469h0.0996094V45.1346474h2.7148438v17.9667969h-2.515625
			l-9.3134766-13.2353516h-0.1123047v13.2353516H69.8784485z"/>
		<path d="M99.136261,59.253788c-0.3613281,2.3789062-2.6767578,4.0097656-5.640625,4.0097656
			c-3.8095703,0-6.1757812-2.5527344-6.1757812-6.6494141c0-4.1083984,2.3779297-6.7734375,6.0634766-6.7734375
			c3.6230469,0,5.9023438,2.4902344,5.9023438,6.4619141v0.921875h-9.2519531v0.1621094
			c0,2.2412109,1.4072266,3.7099609,3.5244141,3.7099609c1.4941406,0,2.6640625-0.7099609,3.0253906-1.8427734H99.136261z
			 M90.0464172,55.3446083h6.5498047c-0.0625-2.0048828-1.3447266-3.3251953-3.2128906-3.3251953
			C91.5278625,52.019413,90.1841125,53.3651161,90.0464172,55.3446083z"/>
		<path d="M105.2344055,46.9022255v3.1005859h2.4902344v2.1289062h-2.4902344v7.2216797
			c0,1.1210938,0.4980469,1.6435547,1.59375,1.6435547c0.2744141,0,0.7099609-0.0371094,0.8847656-0.0615234v2.1162109
			c-0.2988281,0.0751953-0.8964844,0.1240234-1.4941406,0.1240234c-2.6523438,0-3.6855469-0.9960938-3.6855469-3.5351562v-7.5087891
			h-1.9052734v-2.1289062h1.9052734v-3.1005859H105.2344055z"/>
		<path d="M124.007843,63.1014442h-2.8007812l-2.7519531-9.8115234h-0.0625l-2.7265625,9.8115234h-2.7773438l-3.5976562-13.0986328
			h2.6894531l2.390625,10.3095703h0.0498047l2.7265625-10.3095703h2.5898438l2.7392578,10.3095703h0.0625l2.390625-10.3095703
			h2.6640625L124.007843,63.1014442z"/>
		<path d="M128.3994446,56.5526161c0-4.1220703,2.4277344-6.7119141,6.2128906-6.7119141
			c3.7978516,0,6.2138672,2.5898438,6.2138672,6.7119141c0,4.1328125-2.4033203,6.7109375-6.2138672,6.7109375
			C130.8027649,63.2635536,128.3994446,60.6854286,128.3994446,56.5526161z M138.085968,56.5526161
			c0-2.8271484-1.2949219-4.4951172-3.4736328-4.4951172s-3.4736328,1.6806641-3.4736328,4.4951172
			c0,2.8378906,1.2949219,4.4941406,3.4736328,4.4941406S138.085968,59.3905067,138.085968,56.5526161z"/>
		<path d="M143.2881165,50.0028114h2.5654297v2.2285156h0.0625c0.4101562-1.4814453,1.6054688-2.3652344,3.1494141-2.3652344
			c0.3857422,0,0.7099609,0.0498047,0.921875,0.0996094v2.5146484c-0.2119141-0.0869141-0.6845703-0.1621094-1.2080078-0.1621094
			c-1.7304688,0-2.8017578,1.1708984-2.8017578,3.0136719v7.7695312h-2.6894531V50.0028114z"/>
		<path d="M160.1445618,50.0028114h3.1621094l-5.4287109,5.640625l5.640625,7.4580078h-3.1259766l-4.4443359-5.8144531
			l-1.1210938,1.1074219v4.7070312h-2.6894531V45.1346474h2.6894531v10.4833984h0.0253906L160.1445618,50.0028114z"/>
	</g>
</g>
<g>
</g>
<g>
</g>
<g>
</g>
<g>
</g>
<g>
</g>
<g>
</g>
</svg>
